<svg width="24" height="24" viewBox="0 0 24 24" fill="none" xmlns="http://www.w3.org/2000/svg">
<rect width="24" height="24" rx="12" fill="#AB9EBB"/>
<path d="M14.0952 17.0002V18.0418C14.0952 18.387 13.8234 18.6668 13.4881 18.6668H6.60714C6.27182 18.6668 6 18.387 6 18.0418V8.4585C6 8.11331 6.27182 7.8335 6.60714 7.8335H8.42857V15.5418C8.42857 16.346 9.06407 17.0002 9.84524 17.0002H14.0952ZM14.0952 8.04183V5.3335H9.84524C9.50992 5.3335 9.2381 5.61331 9.2381 5.9585V15.5418C9.2381 15.887 9.50992 16.1668 9.84524 16.1668H16.7262C17.0615 16.1668 17.3333 15.887 17.3333 15.5418V8.66683H14.7024C14.3685 8.66683 14.0952 8.38558 14.0952 8.04183ZM17.1555 7.23378L15.4873 5.51654C15.3735 5.39934 15.2191 5.3335 15.058 5.3335H14.9048V7.8335H17.3333V7.67571C17.3333 7.50996 17.2694 7.35099 17.1555 7.23378Z" fill="white"/>
</svg>
