<svg width="24" height="24" viewBox="0 0 24 24" fill="none" xmlns="http://www.w3.org/2000/svg">
<path d="M20.75 15.75H19.4805C18.7148 16.7656 17.7383 17.6133 16.6289 18.25H19.1211C19.3281 18.25 19.4961 18.3906 19.4961 18.5625V19.1875C19.4961 19.3594 19.3281 19.5 19.1211 19.5H4.875C4.66797 19.5 4.5 19.3594 4.5 19.1875V18.5625C4.5 18.3906 4.66797 18.25 4.875 18.25H7.36719C6.25781 17.6133 5.28516 16.7656 4.51562 15.75H3.25C2.55859 15.75 2 16.3086 2 17V20.75C2 21.4414 2.55859 22 3.25 22H20.75C21.4414 22 22 21.4414 22 20.75V17C22 16.3086 21.4414 15.75 20.75 15.75Z" fill="white"/>
<path fill-rule="evenodd" clip-rule="evenodd" d="M12 18C16.4183 18 20 14.4183 20 10C20 5.58172 16.4183 2 12 2C7.58172 2 4 5.58172 4 10C4 14.4183 7.58172 18 12 18ZM8.85032 7.36382L15.8534 8.59865L16.0705 7.36764L9.06738 6.13281L8.85032 7.36382ZM15.4305 11.0244L8.42747 9.7896L8.64453 8.55859L15.6476 9.79343L15.4305 11.0244ZM7.99681 12.2144L14.9999 13.4492L15.2169 12.2182L8.21387 10.9834L7.99681 12.2144ZM10.3844 15.5074L10.6694 13.8913L11.9004 14.1084L11.6154 15.7245L10.3844 15.5074ZM12.6694 3.89134L12.3844 5.50743L13.6154 5.72449L13.9004 4.1084L12.6694 3.89134Z" fill="white"/>
</svg>
