<svg width="40" height="40" viewBox="0 0 40 40" fill="none" xmlns="http://www.w3.org/2000/svg">
<path fill-rule="evenodd" clip-rule="evenodd" d="M19.9983 0C8.955 0 0 8.955 0 20.0017C0 28.8367 5.73 36.3333 13.6783 38.9783C14.6783 39.1617 15.0433 38.545 15.0433 38.015C15.0433 37.54 15.0267 36.2817 15.0167 34.6133C9.45333 35.8217 8.28 31.9317 8.28 31.9317C7.37 29.6217 6.06 29.0067 6.06 29.0067C4.24333 27.765 6.19667 27.7917 6.19667 27.7917C8.20333 27.9333 9.26 29.8533 9.26 29.8533C11.0433 32.91 13.9417 32.0267 15.08 31.515C15.2617 30.2233 15.7783 29.3417 16.35 28.8417C11.9083 28.3367 7.24 26.6217 7.24 18.9567C7.24 16.7733 8.02 14.9883 9.29833 13.59C9.09333 13.0833 8.40667 11.05 9.495 8.29667C9.495 8.29667 11.175 7.75833 14.995 10.3467C16.59 9.90333 18.3017 9.68167 20.0017 9.67333C21.7 9.68167 23.4117 9.90333 25.0083 10.3467C28.8267 7.75833 30.5033 8.29667 30.5033 8.29667C31.595 11.05 30.9083 13.0833 30.7017 13.59C31.9833 14.9883 32.7567 16.7733 32.7567 18.9567C32.7567 26.64 28.08 28.33 23.625 28.825C24.3433 29.4417 24.9833 30.6633 24.9833 32.5283C24.9833 35.2017 24.9583 37.3583 24.9583 38.015C24.9583 38.55 25.3183 39.1717 26.3333 38.9767C34.275 36.325 40 28.835 40 20.0017C40 8.955 31.045 0 19.9983 0Z" fill="#404040"/>
</svg>
