<svg width="40" height="40" viewBox="0 0 40 40" fill="none" xmlns="http://www.w3.org/2000/svg">
<path fill-rule="evenodd" clip-rule="evenodd" d="M6.45837 5.4165H33.5417C35.267 5.4165 36.6667 6.81624 36.6667 8.5415V31.4582C36.6667 33.1834 35.267 34.5832 33.5417 34.5832H6.45837C4.73311 34.5832 3.33337 33.1834 3.33337 31.4582V8.5415C3.33337 6.81624 4.73311 5.4165 6.45837 5.4165ZM33.1511 31.4582C33.3659 31.4582 33.5417 31.2824 33.5417 31.0675V13.3332H6.45837V31.0675C6.45837 31.2824 6.63416 31.4582 6.849 31.4582H33.1511ZM7.83333 10.6667C8.47767 10.6667 9 10.1443 9 9.5C9 8.85567 8.47767 8.33333 7.83333 8.33333C7.189 8.33333 6.66667 8.85567 6.66667 9.5C6.66667 10.1443 7.189 10.6667 7.83333 10.6667ZM12.3333 9.5C12.3333 10.1443 11.811 10.6667 11.1667 10.6667C10.5223 10.6667 10 10.1443 10 9.5C10 8.85567 10.5223 8.33333 11.1667 8.33333C11.811 8.33333 12.3333 8.85567 12.3333 9.5ZM14.5 10.6667C15.1443 10.6667 15.6667 10.1443 15.6667 9.5C15.6667 8.85567 15.1443 8.33333 14.5 8.33333C13.8557 8.33333 13.3333 8.85567 13.3333 9.5C13.3333 10.1443 13.8557 10.6667 14.5 10.6667Z" fill="#404040"/>
</svg>
