<svg width="35" height="28" viewBox="0 0 35 28" fill="none" xmlns="http://www.w3.org/2000/svg">
<path d="M30.7404 7.21041C30.7615 7.50651 30.7615 7.80266 30.7615 8.09876C30.7615 17.13 23.8876 27.5362 11.3241 27.5362C7.45352 27.5362 3.85793 26.4152 0.833374 24.4694C1.38331 24.5328 1.91202 24.554 2.48312 24.554C5.67682 24.554 8.6168 23.4753 10.9645 21.6352C7.96114 21.5717 5.4442 19.6047 4.57701 16.8974C5.00006 16.9608 5.42304 17.0032 5.86725 17.0032C6.4806 17.0032 7.09401 16.9185 7.66504 16.7705C4.53476 16.136 2.18696 13.3864 2.18696 10.0658V9.98119C3.0964 10.4888 4.15402 10.8061 5.27493 10.8483C3.43482 9.62155 2.22928 7.52766 2.22928 5.15877C2.22928 3.88976 2.56763 2.72647 3.15988 1.71124C6.52285 5.85676 11.5779 8.564 17.2462 8.86016C17.1405 8.35254 17.077 7.82382 17.077 7.29505C17.077 3.53019 20.1227 0.463379 23.9087 0.463379C25.8757 0.463379 27.6523 1.28825 28.9002 2.62074C30.4442 2.32465 31.9247 1.75355 33.2361 0.970998C32.7284 2.55733 31.6498 3.88982 30.2327 4.73579C31.6075 4.58781 32.94 4.20701 34.1667 3.6783C33.2362 5.03189 32.0729 6.23742 30.7404 7.21041Z" fill="#404040"/>
</svg>
